<?xml version="1.0" encoding="UTF-8" standalone="no"?>
<!DOCTYPE svg PUBLIC "-//W3C//DTD SVG 1.1//EN" "http://www.w3.org/Graphics/SVG/1.1/DTD/svg11.dtd">
<svg width="100%" height="100%" viewBox="0 0 1080 1080" version="1.1" xmlns="http://www.w3.org/2000/svg" xmlns:xlink="http://www.w3.org/1999/xlink" xml:space="preserve" xmlns:serif="http://www.serif.com/" style="fill-rule:evenodd;clip-rule:evenodd;stroke-linecap:square;stroke-linejoin:round;stroke-miterlimit:2;">
    <g transform="matrix(2.05445,0,0,4.15385,-135.006,-702.125)">
        <rect x="65.714" y="168.571" width="524.762" height="260" style="fill:rgb(74,101,246);"/>
    </g>
    <g transform="matrix(3.23526,0,0,2.68446,-979.689,-220.06)">
        <path d="M639.792,418.079C639.792,421.181 637.756,425.253 633.685,430.294C598.008,472.757 550.6,493.989 491.462,493.989C430.967,493.989 381.911,473.339 344.296,432.039C307.65,392.097 289.326,341.684 289.326,280.801C289.326,221.857 307.262,171.832 343.132,130.726C380.554,87.681 428.156,66.159 485.936,66.159C548.758,66.159 598.008,85.452 633.685,124.037C637.562,128.302 639.501,132.083 639.501,135.38C639.501,139.064 632.764,152.733 619.288,176.388C605.812,200.044 597.329,213.326 593.839,216.234C592.288,217.785 590.349,218.561 588.022,218.561C587.053,218.561 582.205,214.683 573.48,206.927C563.01,197.62 552.733,190.349 542.651,185.114C527.333,177.358 511.434,173.48 494.952,173.48C466.45,173.48 443.667,184.144 426.604,205.473C410.899,225.25 403.046,249.681 403.046,278.765C403.046,308.237 410.899,332.959 426.604,352.93C443.667,374.646 466.45,385.505 494.952,385.505C511.821,385.505 527.818,381.821 542.942,374.453C552.83,369.605 562.913,362.819 573.189,354.094C581.721,346.726 586.471,343.042 587.441,343.042C589.379,343.042 591.318,344.108 593.257,346.241C596.36,349.731 604.794,361.849 618.561,382.596C632.715,404.119 639.792,415.946 639.792,418.079Z" style="fill:rgb(246,92,98);fill-rule:nonzero;stroke:black;stroke-width:4.47px;"/>
    </g>
</svg>
