<?xml version="1.0" encoding="UTF-8" standalone="no"?><!DOCTYPE svg PUBLIC "-//W3C//DTD SVG 1.1//EN" "http://www.w3.org/Graphics/SVG/1.1/DTD/svg11.dtd"><svg width="100%" height="100%" viewBox="0 0 2392 2423" version="1.1" xmlns="http://www.w3.org/2000/svg" xmlns:xlink="http://www.w3.org/1999/xlink" xml:space="preserve" xmlns:serif="http://www.serif.com/" style="fill-rule:evenodd;clip-rule:evenodd;stroke-linecap:square;stroke-linejoin:round;stroke-miterlimit:2;"><path d="M2377.51,1983.87c-0,17.35 -13.723,40.122 -41.167,68.316c-240.466,237.48 -559.997,356.22 -958.595,356.22c-407.746,-0 -738.386,-115.487 -991.921,-346.461c-247,-223.383 -370.5,-505.323 -370.5,-845.819c0,-329.652 120.887,-609.423 362.659,-839.313c252.227,-240.733 573.066,-361.099 962.516,-361.099c423.428,-0 755.375,107.896 995.841,323.688c26.138,23.857 39.206,45.002 39.206,63.437c0,20.603 -45.414,97.052 -136.242,229.347c-90.828,132.294 -148.004,206.575 -171.528,222.84c-10.455,8.675 -23.523,13.013 -39.206,13.013c-6.534,0 -39.206,-21.688 -98.016,-65.063c-70.571,-52.05 -139.836,-92.715 -207.793,-121.993c-103.244,-43.375 -210.408,-65.063 -321.492,-65.063c-192.111,-0 -345.67,59.641 -460.675,178.923c-105.857,110.607 -158.786,247.24 -158.786,409.897c0,164.826 52.929,303.085 158.786,414.777c115.005,121.451 268.564,182.176 460.675,182.176c113.698,0 221.515,-20.603 323.452,-61.81c66.651,-27.109 134.608,-65.063 203.873,-113.86c57.503,-41.207 89.521,-61.81 96.056,-61.81c13.068,0 26.137,5.964 39.206,17.892c20.91,19.519 77.759,87.293 170.547,203.322c95.403,120.367 143.104,186.514 143.104,198.443Z" style="fill:#f65c62;fill-rule:nonzero;stroke:#000;stroke-width:27.66px;"/></svg>